<?xml version="1.0" encoding="UTF-8"?>
<svg xmlns="http://www.w3.org/2000/svg" xmlns:xlink="http://www.w3.org/1999/xlink" width="256pt" height="256pt" viewBox="0 0 256 256" version="1.1">
<g id="surface1">
<path style=" stroke:none;fill-rule:nonzero;fill:rgb(0%,0%,0%);fill-opacity:1;" d="M 75.238281 140.804688 C 75.238281 134.933594 68.066406 131.339844 63.035156 131.339844 L 43.410156 131.339844 L 43.410156 149.148438 L 63.035156 149.148438 C 68.066406 149.148438 75.238281 146.949219 75.238281 140.804688 Z M 75.238281 140.804688 "/>
<path style=" stroke:none;fill-rule:nonzero;fill:rgb(0%,0%,0%);fill-opacity:1;" d="M 0 195.894531 L 256 195.894531 L 256 61.21875 L 0 61.21875 Z M 166.957031 94.800781 C 176.972656 94.800781 187.59375 94.894531 197.933594 94.894531 C 213.300781 94.984375 221.386719 105.230469 221.386719 116.5 C 221.386719 125.441406 216.824219 134.476562 204.4375 136.988281 L 223.722656 159.25 L 223.722656 160.277344 L 210.003906 160.277344 L 191.003906 138.015625 L 179.199219 138.015625 L 179.199219 160.277344 L 166.957031 160.277344 Z M 118.636719 94.609375 L 132.050781 94.609375 L 161.292969 160.277344 L 147.882812 160.277344 L 142.386719 148.035156 L 108.300781 148.035156 L 102.710938 160.277344 L 89.394531 160.277344 Z M 32.277344 94.609375 C 42.296875 94.609375 52.699219 94.609375 63.035156 94.609375 C 75.886719 94.609375 85.480469 100.527344 85.480469 113.65625 C 85.480469 118.6875 83.058594 123.601562 77.007812 126.300781 C 84.644531 128.628906 87.4375 136.863281 87.4375 140.960938 C 87.4375 155.488281 76.542969 160.277344 63.039062 160.277344 C 52.699219 160.277344 42.296875 160.277344 32.277344 160.277344 Z M 32.277344 94.609375 "/>
<path style=" stroke:none;fill-rule:nonzero;fill:rgb(0%,0%,0%);fill-opacity:1;" d="M 125.34375 108.039062 L 113.238281 135.792969 L 137.453125 135.792969 Z M 125.34375 108.039062 "/>
<path style=" stroke:none;fill-rule:nonzero;fill:rgb(0%,0%,0%);fill-opacity:1;" d="M 73.28125 114.042969 C 73.28125 111.0625 70.859375 105.738281 63.035156 105.738281 L 43.410156 105.738281 L 43.410156 121.320312 L 63.035156 121.320312 C 70.765625 121.320312 73.28125 117.769531 73.28125 114.042969 Z M 73.28125 114.042969 "/>
<path style=" stroke:none;fill-rule:nonzero;fill:rgb(0%,0%,0%);fill-opacity:1;" d="M 209.070312 116.871094 C 209.070312 111.652344 205.625 106.851562 197.894531 106.851562 L 179.199219 106.851562 L 179.199219 126.886719 L 197.898438 126.886719 C 205.71875 126.886719 209.070312 122.085938 209.070312 116.871094 Z M 209.070312 116.871094 "/>
<path style=" stroke:none;fill-rule:nonzero;fill:rgb(0%,0%,0%);fill-opacity:1;" d="M 0 27.824219 L 256 27.824219 L 256 48.972656 L 0 48.972656 Z M 0 27.824219 "/>
<path style=" stroke:none;fill-rule:nonzero;fill:rgb(0%,0%,0%);fill-opacity:1;" d="M 0 207.027344 L 256 207.027344 L 256 228.175781 L 0 228.175781 Z M 0 207.027344 "/>
</g>
</svg>
