<?xml version="1.0" encoding="UTF-8"?>
<svg xmlns="http://www.w3.org/2000/svg" xmlns:xlink="http://www.w3.org/1999/xlink" width="256pt" height="256pt" viewBox="0 0 256 256" version="1.1">
<g id="surface1">
<path style=" stroke:none;fill-rule:nonzero;fill:rgb(98.823529%,81.568627%,38.823529%);fill-opacity:1;" d="M 216 192 C 208 192 208 184.824219 208 176 C 208 176 204 48 156 48 L 100 48 C 52 48 48 176 48 176 C 48 184.824219 48 192 40 192 C 28 192 24 199.726562 24 208 C 24 216.824219 28 224 40 224 L 216 224 C 228 224 232 216.824219 232 208 C 232 199.726562 228 192 216 192 Z M 216 192 "/>
<path style=" stroke:none;fill-rule:nonzero;fill:rgb(98.823529%,81.568627%,38.823529%);fill-opacity:1;" d="M 120 20 L 136 20 L 136 48 L 120 48 Z M 120 20 "/>
<path style=" stroke:none;fill-rule:nonzero;fill:rgb(96.862745%,72.156863%,30.588235%);fill-opacity:1;" d="M 128 20 L 136 20 L 136 48 L 128 48 Z M 128 20 "/>
<path style=" stroke:none;fill-rule:nonzero;fill:rgb(98.823529%,81.568627%,38.823529%);fill-opacity:1;" d="M 140 12 C 140 18.628906 134.628906 24 128 24 C 121.371094 24 116 18.628906 116 12 C 116 5.371094 121.371094 0 128 0 C 134.628906 0 140 5.371094 140 12 Z M 140 12 "/>
<path style=" stroke:none;fill-rule:nonzero;fill:rgb(96.862745%,72.156863%,30.588235%);fill-opacity:1;" d="M 134.214844 1.78125 C 135.324219 3.601562 136 5.714844 136 8 C 136 14.625 130.628906 20 124 20 C 121.714844 20 119.601562 19.328125 117.785156 18.21875 C 119.890625 21.671875 123.660156 24 128 24 C 134.625 24 140 18.625 140 12 C 140 7.65625 137.671875 3.890625 134.214844 1.78125 Z M 134.214844 1.78125 "/>
<path style=" stroke:none;fill-rule:nonzero;fill:rgb(96.862745%,72.156863%,30.588235%);fill-opacity:1;" d="M 160 224 C 160 241.675781 145.671875 256 128 256 C 110.324219 256 96 241.675781 96 224 "/>
<path style=" stroke:none;fill-rule:nonzero;fill:rgb(84.705882%,61.176471%,27.058824%);fill-opacity:1;" d="M 158.953125 232 C 159.613281 229.4375 160 226.769531 160 224 L 96 224 C 96 226.769531 96.386719 229.4375 97.046875 232 Z M 158.953125 232 "/>
<path style=" stroke:none;fill-rule:nonzero;fill:rgb(100%,93.333333%,74.117647%);fill-opacity:1;" d="M 81.285156 180 C 79.132812 180 77.359375 178.292969 77.289062 176.128906 C 77.230469 174.429688 76.035156 134.085938 84.101562 99.101562 C 84.601562 96.945312 86.746094 95.617188 88.894531 96.101562 C 91.046875 96.597656 92.390625 98.742188 91.894531 100.894531 C 84.0625 134.875 85.269531 175.464844 85.285156 175.867188 C 85.355469 178.074219 83.625 179.925781 81.414062 179.996094 C 81.371094 180 81.328125 180 81.285156 180 Z M 81.285156 180 "/>
<path style=" stroke:none;fill-rule:nonzero;fill:rgb(96.862745%,72.156863%,30.588235%);fill-opacity:1;" d="M 216 192 C 208 192 208 184.824219 208 176 C 208 176 204 48 156 48 L 124 48 C 172 48 168 176 168 176 C 168 192 176 224 196 224 L 216 224 C 228 224 232 216.824219 232 208 C 232 199.726562 228 192 216 192 Z M 216 192 "/>
<path style=" stroke:none;fill-rule:nonzero;fill:rgb(89.411765%,31.764706%,24.705882%);fill-opacity:1;" d="M 68 147.960938 C 77.257812 147.960938 86.507812 144.554688 93.554688 137.757812 C 101.519531 130.058594 114.476562 130.058594 122.445312 137.757812 C 129.492188 144.554688 138.742188 147.960938 148 147.960938 C 157.253906 147.960938 166.507812 144.554688 173.554688 137.757812 C 181.519531 130.058594 194.476562 130.058594 202.445312 137.757812 C 203.128906 138.410156 203.902344 138.894531 204.714844 139.265625 C 203.835938 132.6875 202.734375 125.660156 201.335938 118.5 C 188.339844 113.535156 172.941406 116.109375 162.441406 126.242188 C 154.476562 133.941406 141.519531 133.941406 133.550781 126.242188 C 119.460938 112.644531 96.535156 112.644531 82.441406 126.242188 C 74.476562 133.941406 61.519531 133.941406 53.550781 126.242188 C 53.46875 126.164062 53.375 126.113281 53.289062 126.039062 C 52.234375 132.195312 51.386719 138.15625 50.707031 143.703125 C 56.085938 146.527344 62.035156 147.960938 68 147.960938 Z M 68 147.960938 "/>
<path style=" stroke:none;fill-rule:nonzero;fill:rgb(82.745098%,27.45098%,23.529412%);fill-opacity:1;" d="M 202.441406 137.757812 C 203.125 138.410156 203.898438 138.894531 204.710938 139.265625 C 203.832031 132.6875 202.730469 125.660156 201.332031 118.5 C 189.566406 114.007812 175.84375 115.703125 165.558594 123.585938 C 166.324219 130.191406 166.855469 136.617188 167.234375 142.59375 C 169.476562 141.226562 171.605469 139.636719 173.550781 137.757812 C 181.519531 130.0625 194.476562 130.0625 202.441406 137.757812 Z M 202.441406 137.757812 "/>
<path style=" stroke:none;fill-rule:nonzero;fill:rgb(94.509804%,33.72549%,25.882353%);fill-opacity:1;" d="M 82.445312 126.242188 C 81.464844 127.1875 80.410156 128.007812 79.300781 128.722656 C 78.625 135.019531 78.15625 141.0625 77.839844 146.636719 C 80.695312 145.859375 83.460938 144.714844 86.089844 143.253906 C 86.535156 136.507812 87.207031 129.183594 88.199219 121.726562 C 86.167969 123.015625 84.230469 124.515625 82.445312 126.242188 Z M 82.445312 126.242188 "/>
</g>
</svg>
