<?xml version="1.0" encoding="UTF-8"?>
<svg xmlns="http://www.w3.org/2000/svg" xmlns:xlink="http://www.w3.org/1999/xlink" width="256pt" height="256pt" viewBox="0 0 256 256" version="1.1">
<g id="surface1">
<path style=" stroke:none;fill-rule:nonzero;fill:rgb(71.764706%,92.941176%,38.431373%);fill-opacity:1;" d="M 237.695312 27.300781 C 237.695312 27.300781 205.929688 46.257812 156.972656 46 C 137.605469 45.894531 115.535156 42.78125 91.679688 34.296875 L 85.097656 22.425781 C 85.097656 22.425781 104.007812 5.121094 137.605469 0.917969 C 163.113281 -2.285156 197.09375 2.078125 237.695312 27.300781 "/>
<path style=" stroke:none;fill-rule:nonzero;fill:rgb(67.45098%,85.490196%,38.823529%);fill-opacity:1;" d="M 136.773438 1.023438 C 103.699219 5.40625 85.097656 22.425781 85.097656 22.425781 L 91.679688 34.296875 C 115.535156 42.78125 137.605469 45.894531 156.972656 46 L 156.964844 45.992188 C 124.535156 18.214844 137.605469 0.917969 137.605469 0.917969 C 137.328125 0.953125 137.050781 0.988281 136.773438 1.023438 "/>
<path style=" stroke:none;fill-rule:nonzero;fill:rgb(71.764706%,92.941176%,38.431373%);fill-opacity:1;" d="M 157.199219 79.023438 C 144.261719 61.332031 129.046875 46.753906 111.972656 35.683594 C 90.59375 21.824219 66.28125 13.488281 39.703125 10.90625 L 38.714844 21.089844 C 63.570312 23.503906 86.28125 31.261719 106.226562 44.152344 C 113.875 49.09375 121.128906 54.804688 127.953125 61.222656 C 125.867188 82.339844 116.066406 101.035156 98.796875 116.820312 C 85.203125 129.246094 71.84375 135.105469 71.710938 135.164062 L 75.757812 144.558594 C 76.355469 144.304688 90.585938 138.105469 105.429688 124.621094 C 122.292969 109.296875 133.050781 90.710938 136.949219 70.363281 C 141.066406 74.886719 144.996094 79.691406 148.730469 84.773438 C 169.664062 113.273438 177.242188 140.910156 177.316406 141.1875 L 187.199219 138.542969 C 186.878906 137.351562 179.164062 109.046875 157.199219 79.023438 Z M 157.199219 79.023438 "/>
<path style=" stroke:none;fill-rule:nonzero;fill:rgb(86.666667%,27.058824%,27.058824%);fill-opacity:1;" d="M 243.097656 195.160156 C 243.097656 224.238281 222.691406 248.558594 195.410156 254.566406 C 191.179688 255.511719 186.773438 256 182.253906 256 C 148.660156 256 121.421875 228.753906 121.421875 195.160156 C 121.421875 161.558594 148.660156 134.320312 182.253906 134.320312 C 186.773438 134.320312 191.179688 134.808594 195.410156 135.753906 C 222.691406 141.757812 243.097656 166.074219 243.097656 195.160156 Z M 243.097656 195.160156 "/>
<path style=" stroke:none;fill-rule:nonzero;fill:rgb(96.862745%,34.901961%,34.901961%);fill-opacity:1;" d="M 243.097656 195.160156 C 243.097656 224.238281 222.691406 248.558594 195.410156 254.566406 C 168.128906 248.558594 147.726562 224.238281 147.726562 195.160156 C 147.726562 166.074219 168.128906 141.761719 195.410156 135.753906 C 222.691406 141.757812 243.097656 166.074219 243.097656 195.160156 Z M 243.097656 195.160156 "/>
<path style=" stroke:none;fill-rule:nonzero;fill:rgb(86.666667%,27.058824%,27.058824%);fill-opacity:1;" d="M 134.578125 195.160156 C 134.578125 224.238281 114.171875 248.558594 86.890625 254.566406 C 82.660156 255.511719 78.253906 256 73.734375 256 C 40.140625 256 12.902344 228.753906 12.902344 195.160156 C 12.902344 161.558594 40.140625 134.320312 73.734375 134.320312 C 78.253906 134.320312 82.660156 134.808594 86.890625 135.753906 C 114.171875 141.757812 134.578125 166.074219 134.578125 195.160156 Z M 134.578125 195.160156 "/>
<path style=" stroke:none;fill-rule:nonzero;fill:rgb(96.862745%,34.901961%,34.901961%);fill-opacity:1;" d="M 134.578125 195.160156 C 134.578125 224.238281 114.171875 248.558594 86.890625 254.566406 C 59.609375 248.558594 39.207031 224.238281 39.207031 195.160156 C 39.207031 166.074219 59.609375 141.761719 86.890625 135.753906 C 114.171875 141.757812 134.578125 166.074219 134.578125 195.160156 Z M 134.578125 195.160156 "/>
<path style=" stroke:none;fill-rule:nonzero;fill:rgb(100%,80%,80%);fill-opacity:1;" d="M 121.421875 184.511719 C 121.421875 192.355469 115.066406 198.710938 107.222656 198.710938 C 99.378906 198.710938 93.023438 192.355469 93.023438 184.511719 C 93.023438 176.667969 99.378906 170.3125 107.222656 170.3125 C 115.066406 170.3125 121.421875 176.667969 121.421875 184.511719 Z M 121.421875 184.511719 "/>
<path style=" stroke:none;fill-rule:nonzero;fill:rgb(100%,80%,80%);fill-opacity:1;" d="M 233.824219 184.511719 C 233.824219 192.355469 227.46875 198.710938 219.625 198.710938 C 211.78125 198.710938 205.421875 192.355469 205.421875 184.511719 C 205.421875 176.667969 211.78125 170.3125 219.625 170.3125 C 227.46875 170.3125 233.824219 176.667969 233.824219 184.511719 Z M 233.824219 184.511719 "/>
</g>
</svg>
