<?xml version="1.0" encoding="UTF-8"?>
<svg xmlns="http://www.w3.org/2000/svg" xmlns:xlink="http://www.w3.org/1999/xlink" width="256pt" height="256pt" viewBox="0 0 256 256" version="1.1">
<g id="surface1">
<path style=" stroke:none;fill-rule:nonzero;fill:rgb(12.941176%,12.941176%,12.941176%);fill-opacity:1;" d="M 197.332031 213.332031 C 197.332031 216.265625 194.945312 218.667969 192 218.667969 L 130.855469 218.667969 C 127.792969 224.542969 123.914062 229.925781 119.363281 234.667969 L 192 234.667969 C 203.777344 234.667969 213.332031 225.109375 213.332031 213.332031 L 213.332031 104.832031 C 213.332031 99.179688 211.082031 93.75 207.082031 89.75 L 144.90625 27.585938 C 144.746094 27.425781 144.566406 27.285156 144.386719 27.148438 C 144.253906 27.046875 144.121094 26.945312 144 26.835938 C 143.242188 26.15625 142.496094 25.484375 141.664062 24.917969 C 141.394531 24.734375 141.101562 24.589844 140.804688 24.449219 C 140.632812 24.367188 140.464844 24.28125 140.296875 24.191406 C 140.121094 24.089844 139.945312 23.988281 139.765625 23.886719 C 139.1875 23.550781 138.605469 23.214844 137.996094 22.953125 C 135.894531 22.078125 133.632812 21.644531 131.339844 21.484375 C 131.128906 21.46875 130.921875 21.441406 130.710938 21.414062 C 130.421875 21.371094 130.132812 21.332031 129.835938 21.332031 L 64 21.332031 C 52.222656 21.332031 42.667969 30.890625 42.667969 42.667969 L 42.667969 122.648438 C 47.722656 120.539062 53.085938 119.011719 58.667969 118.148438 L 58.667969 42.667969 C 58.667969 39.734375 61.054688 37.332031 64 37.332031 L 128 37.332031 L 128 85.332031 C 128 97.109375 137.558594 106.667969 149.332031 106.667969 L 197.332031 106.667969 Z M 144 49.289062 L 185.367188 90.667969 L 149.332031 90.667969 C 146.390625 90.667969 144 88.265625 144 85.332031 Z M 144 49.289062 "/>
<path style=" stroke:none;fill-rule:nonzero;fill:rgb(12.941176%,12.941176%,12.941176%);fill-opacity:1;" d="M 128 186.667969 C 128 219.066406 101.734375 245.332031 69.332031 245.332031 C 36.933594 245.332031 10.667969 219.066406 10.667969 186.667969 C 10.667969 154.265625 36.933594 128 69.332031 128 C 101.734375 128 128 154.265625 128 186.667969 Z M 26.667969 186.667969 C 26.667969 195.558594 29.386719 203.8125 34.039062 210.648438 L 93.3125 151.371094 C 86.480469 146.71875 78.222656 144 69.332031 144 C 45.769531 144 26.667969 163.101562 26.667969 186.667969 Z M 69.332031 229.332031 C 92.898438 229.332031 112 210.230469 112 186.667969 C 112 177.777344 109.28125 169.519531 104.628906 162.6875 L 45.351562 221.960938 C 52.1875 226.613281 60.441406 229.332031 69.332031 229.332031 Z M 69.332031 229.332031 "/>
</g>
</svg>
