<?xml version="1.0" encoding="UTF-8"?>
<svg xmlns="http://www.w3.org/2000/svg" xmlns:xlink="http://www.w3.org/1999/xlink" width="256pt" height="256pt" viewBox="0 0 256 256" version="1.1">
<g id="surface1">
<path style=" stroke:none;fill-rule:nonzero;fill:rgb(60.392157%,29.803922%,0%);fill-opacity:1;" d="M 135.753906 92.539062 L 120.671875 88.253906 C 132.519531 46.570312 107.308594 9.261719 107.054688 8.890625 L 119.96875 0 C 121.183594 1.765625 149.597656 43.835938 135.753906 92.539062 Z M 135.753906 92.539062 "/>
<path style=" stroke:none;fill-rule:nonzero;fill:rgb(100%,71.764706%,30.196078%);fill-opacity:1;" d="M 228.964844 155.035156 C 228.964844 210.710938 183.671875 256 128 256 L 127.949219 256 C 72.300781 255.972656 27.035156 210.695312 27.035156 155.035156 C 27.035156 99.382812 72.300781 54.101562 127.949219 54.074219 L 128 54.074219 C 183.671875 54.074219 228.964844 99.367188 228.964844 155.035156 Z M 228.964844 155.035156 "/>
<path style=" stroke:none;fill-rule:nonzero;fill:rgb(100%,96.470588%,76.862745%);fill-opacity:1;" d="M 61.28125 178.105469 L 73.824219 178.105469 L 73.824219 190.648438 L 61.28125 190.648438 Z M 61.28125 178.105469 "/>
<path style=" stroke:none;fill-rule:nonzero;fill:rgb(100%,96.470588%,76.862745%);fill-opacity:1;" d="M 89.503906 174.445312 L 102.042969 174.445312 L 102.042969 186.988281 L 89.503906 186.988281 Z M 89.503906 174.445312 "/>
<path style=" stroke:none;fill-rule:nonzero;fill:rgb(100%,96.470588%,76.862745%);fill-opacity:1;" d="M 86.367188 201.972656 L 98.910156 201.972656 L 98.910156 214.515625 L 86.367188 214.515625 Z M 86.367188 201.972656 "/>
<path style=" stroke:none;fill-rule:nonzero;fill:rgb(100%,60.392157%,0%);fill-opacity:1;" d="M 228.964844 155.035156 C 228.964844 210.710938 183.671875 256 128 256 L 127.949219 256 L 127.949219 54.074219 L 128 54.074219 C 183.671875 54.074219 228.964844 99.367188 228.964844 155.035156 Z M 228.964844 155.035156 "/>
<path style=" stroke:none;fill-rule:nonzero;fill:rgb(0%,65.098039%,32.54902%);fill-opacity:1;" d="M 192.066406 21.597656 C 134.578125 70.609375 124.230469 26.0625 124.230469 26.0625 C 124.230469 26.0625 128.648438 -19.453125 192.066406 21.597656 Z M 192.066406 21.597656 "/>
<path style=" stroke:none;fill-rule:nonzero;fill:rgb(0%,50.196078%,25.098039%);fill-opacity:1;" d="M 192.066406 21.597656 C 134.578125 70.609375 124.230469 26.0625 124.230469 26.0625 Z M 192.066406 21.597656 "/>
</g>
</svg>
