<?xml version="1.0" encoding="UTF-8"?>
<svg xmlns="http://www.w3.org/2000/svg" xmlns:xlink="http://www.w3.org/1999/xlink" width="256pt" height="256pt" viewBox="0 0 256 256" version="1.1">
<g id="surface1">
<path style=" stroke:none;fill-rule:nonzero;fill:rgb(42.745098%,30.196078%,25.882353%);fill-opacity:1;" d="M 176 84 C 178.210938 84 180 82.210938 180 80 C 179.976562 60.125 163.875 44.023438 144 44 C 141.789062 44 140 45.789062 140 48 C 140 50.210938 141.789062 52 144 52 C 159.457031 52.019531 171.980469 64.542969 172 80 C 172 82.210938 173.789062 84 176 84 Z M 176 84 "/>
<path style=" stroke:none;fill-rule:nonzero;fill:rgb(21.568627%,55.686275%,26.27451%);fill-opacity:1;" d="M 176 72.238281 L 176 80 L 183.761719 80 C 190.191406 80.003906 196.359375 77.453125 200.90625 72.90625 C 205.453125 68.359375 208.003906 62.191406 208 55.761719 L 208 48 L 200.238281 48 C 193.808594 47.996094 187.640625 50.546875 183.09375 55.09375 C 178.546875 59.640625 175.996094 65.808594 176 72.238281 Z M 176 72.238281 "/>
<path style=" stroke:none;fill-rule:nonzero;fill:rgb(25.882353%,62.745098%,27.843137%);fill-opacity:1;" d="M 176 80 L 183.761719 80 C 190.191406 80.003906 196.359375 77.453125 200.90625 72.90625 C 205.453125 68.359375 208.003906 62.191406 208 55.761719 L 208 48 Z M 176 80 "/>
<path style=" stroke:none;fill-rule:nonzero;fill:rgb(96.862745%,54.901961%,11.764706%);fill-opacity:1;" d="M 240 144 C 240 179.359375 216.71875 208 188 208 C 183.933594 207.992188 179.890625 207.382812 176 206.199219 C 172.109375 207.382812 168.066406 207.992188 164 208 C 135.28125 208 112 179.359375 112 144 C 112 108.640625 135.28125 80 164 80 C 168.066406 80.007812 172.109375 80.617188 176 81.800781 C 179.890625 80.617188 183.933594 80.007812 188 80 C 216.71875 80 240 108.640625 240 144 Z M 240 144 "/>
<path style=" stroke:none;fill-rule:nonzero;fill:rgb(95.686275%,48.627451%,12.54902%);fill-opacity:1;" d="M 240 144 C 240 179.359375 216.71875 208 188 208 C 183.933594 207.992188 179.890625 207.382812 176 206.199219 L 176 81.800781 C 179.890625 80.617188 183.933594 80.007812 188 80 C 216.71875 80 240 108.640625 240 144 Z M 240 144 "/>
<path style=" stroke:none;fill-rule:nonzero;fill:rgb(42.745098%,30.196078%,25.882353%);fill-opacity:1;" d="M 80 84 C 77.789062 84 76 82.210938 76 80 C 76.023438 60.125 92.125 44.023438 112 44 C 114.210938 44 116 45.789062 116 48 C 116 50.210938 114.210938 52 112 52 C 96.542969 52.019531 84.019531 64.542969 84 80 C 84 82.210938 82.210938 84 80 84 Z M 80 84 "/>
<path style=" stroke:none;fill-rule:nonzero;fill:rgb(21.568627%,55.686275%,26.27451%);fill-opacity:1;" d="M 80 72.238281 L 80 80 L 72.238281 80 C 65.808594 80.003906 59.640625 77.453125 55.09375 72.90625 C 50.546875 68.359375 47.996094 62.191406 48 55.761719 L 48 48 L 55.761719 48 C 62.191406 47.996094 68.359375 50.546875 72.90625 55.09375 C 77.453125 59.640625 80.003906 65.808594 80 72.238281 Z M 80 72.238281 "/>
<path style=" stroke:none;fill-rule:nonzero;fill:rgb(25.882353%,62.745098%,27.843137%);fill-opacity:1;" d="M 80 80 L 72.238281 80 C 65.808594 80.003906 59.640625 77.453125 55.09375 72.90625 C 50.546875 68.359375 47.996094 62.191406 48 55.761719 L 48 48 Z M 80 80 "/>
<path style=" stroke:none;fill-rule:nonzero;fill:rgb(67.058824%,42.352941%,67.843137%);fill-opacity:1;" d="M 112 144 C 111.761719 160.773438 117.425781 177.097656 128 190.121094 C 119.253906 201.136719 106.0625 207.691406 92 208 C 87.933594 207.992188 83.890625 207.382812 80 206.199219 C 76.109375 207.382812 72.066406 207.992188 68 208 C 39.28125 208 16 179.359375 16 144 C 16 108.640625 39.28125 80 68 80 C 69.484375 79.992188 70.96875 80.085938 72.441406 80.28125 C 75.003906 80.523438 77.539062 81.035156 80 81.800781 C 83.890625 80.617188 87.933594 80.007812 92 80 C 93.320312 80 94.640625 80.078125 95.960938 80.199219 C 108.550781 81.644531 120.0625 87.996094 128 97.878906 C 117.425781 110.902344 111.761719 127.226562 112 144 Z M 112 144 "/>
<path style=" stroke:none;fill-rule:nonzero;fill:rgb(60.784314%,31.764706%,62.745098%);fill-opacity:1;" d="M 112 144 C 111.761719 160.773438 117.425781 177.097656 128 190.121094 C 119.253906 201.136719 106.0625 207.691406 92 208 C 87.933594 207.992188 83.890625 207.382812 80 206.199219 L 80 81.800781 C 83.890625 80.617188 87.933594 80.007812 92 80 C 106.0625 80.308594 119.253906 86.863281 128 97.878906 C 117.425781 110.902344 111.761719 127.226562 112 144 Z M 112 144 "/>
<path style=" stroke:none;fill-rule:nonzero;fill:rgb(52.54902%,23.137255%,58.823529%);fill-opacity:1;" d="M 95.960938 80.199219 C 95.871094 82.324219 94.125 84 92 84 C 65.519531 84 44 110.921875 44 144 C 44 146.210938 42.210938 148 40 148 C 37.789062 148 36 146.210938 36 144 C 36 114.878906 51.160156 89.921875 72.441406 80.28125 C 75.003906 80.523438 77.539062 81.035156 80 81.800781 C 83.890625 80.617188 87.933594 80.007812 92 80 C 93.320312 80 94.640625 80.078125 95.960938 80.199219 Z M 95.960938 80.199219 "/>
<path style=" stroke:none;fill-rule:nonzero;fill:rgb(98.823529%,71.372549%,30.196078%);fill-opacity:1;" d="M 192 144 C 192 128.535156 184.835938 116 176 116 C 167.164062 116 160 128.535156 160 144 C 160 159.464844 167.164062 172 176 172 C 184.835938 172 192 159.464844 192 144 Z M 192 144 "/>
<path style=" stroke:none;fill-rule:nonzero;fill:rgb(98.039216%,65.098039%,16.078431%);fill-opacity:1;" d="M 192 144 C 192 159.480469 184.839844 172 176 172 L 176 116 C 184.839844 116 192 128.519531 192 144 Z M 192 144 "/>
</g>
</svg>
