<?xml version="1.0" encoding="UTF-8"?>
<svg xmlns="http://www.w3.org/2000/svg" xmlns:xlink="http://www.w3.org/1999/xlink" width="256pt" height="256pt" viewBox="0 0 256 256" version="1.1">
<g id="surface1">
<path style=" stroke:none;fill-rule:nonzero;fill:rgb(100%,0%,0%);fill-opacity:1;" d="M 170.359375 150.097656 C 169.988281 129.175781 174.085938 99.890625 195.703125 79.183594 C 196.203125 78.703125 196.488281 78.042969 196.488281 77.351562 C 196.492188 76.660156 196.214844 75.996094 195.71875 75.511719 C 193.929688 73.765625 188.140625 66.453125 186.0625 63.785156 C 185.3125 62.824219 183.992188 62.527344 182.902344 63.074219 L 162.328125 73.410156 C 157.894531 70.367188 142.910156 61.222656 122.957031 61.222656 C 113.03125 61.222656 103.34375 63.515625 94.097656 68.042969 L 94.097656 65.527344 C 94.097656 64.792969 93.78125 64.09375 93.234375 63.609375 C 92.683594 63.125 91.949219 62.902344 91.222656 62.992188 L 71.050781 65.578125 C 69.734375 65.75 68.765625 66.902344 68.828125 68.230469 L 70.949219 114.417969 C 71.011719 115.777344 72.132812 116.851562 73.496094 116.851562 L 91.179688 116.878906 C 91.179688 116.878906 91.183594 116.878906 91.183594 116.878906 C 91.1875 116.878906 91.191406 116.878906 91.195312 116.878906 C 92.605469 116.878906 93.75 115.734375 93.75 114.324219 C 93.75 114.082031 93.714844 113.84375 93.648438 113.617188 C 93.445312 112.335938 93.316406 109.023438 94.914062 107.070312 C 95.96875 105.785156 97.671875 105.160156 100.125 105.160156 C 101.988281 105.160156 104.21875 105.535156 106.765625 106.285156 C 113.683594 108.316406 119.828125 109.421875 125.046875 109.582031 C 121.332031 112.960938 116.710938 117.867188 112.269531 124.46875 C 103.523438 137.472656 93.875 159.824219 97.589844 192.464844 C 97.738281 193.746094 98.8125 194.714844 100.101562 194.730469 C 103.175781 194.761719 111.1875 194.777344 123.921875 194.777344 C 145.835938 194.777344 174.089844 194.730469 174.089844 194.730469 C 174.902344 194.726562 175.667969 194.339844 176.148438 193.683594 C 176.628906 193.023438 176.765625 192.179688 176.519531 191.402344 C 176.460938 191.222656 170.765625 173.015625 170.359375 150.097656 Z M 123.921875 189.671875 C 113.621094 189.671875 106.417969 189.660156 102.429688 189.640625 C 99.578125 159.902344 108.367188 139.503906 116.359375 127.535156 C 125.257812 114.214844 135.140625 108.121094 135.234375 108.0625 C 136.421875 107.347656 136.84375 105.804688 136.160156 104.601562 C 135.472656 103.394531 133.976562 102.945312 132.757812 103.601562 C 132.742188 103.613281 130.84375 104.496094 126.34375 104.496094 C 121.339844 104.496094 115.238281 103.449219 108.203125 101.386719 C 100.03125 98.988281 94.21875 99.859375 90.964844 103.832031 C 88.921875 106.324219 88.453125 109.476562 88.433594 111.769531 L 75.933594 111.75 L 74.035156 70.34375 L 88.992188 68.425781 L 88.992188 72.273438 C 88.992188 73.179688 89.472656 74.019531 90.257812 74.476562 C 91.042969 74.933594 92.011719 74.941406 92.800781 74.496094 C 102.402344 69.074219 112.550781 66.328125 122.957031 66.328125 C 144.582031 66.328125 160.378906 78.285156 160.53125 78.402344 C 161.308594 79.003906 162.359375 79.105469 163.238281 78.664062 L 183.328125 68.570312 C 185.089844 70.8125 188.195312 74.710938 190.398438 77.25 C 173.371094 94.640625 164.691406 119.839844 165.257812 150.324219 C 165.59375 168.363281 169 183.25 170.703125 189.628906 C 162.5625 189.640625 141.257812 189.671875 123.921875 189.671875 Z M 123.921875 189.671875 "/>
<path style=" stroke:none;fill-rule:nonzero;fill:rgb(0%,0%,0%);fill-opacity:1;" d="M 61.886719 91.566406 C 61.140625 90.605469 59.816406 90.308594 58.730469 90.855469 L 48.910156 95.785156 C 45.960938 93.882812 38.480469 89.777344 28.792969 89.777344 C 24.167969 89.777344 19.640625 90.722656 15.285156 92.585938 C 15.160156 92.09375 14.886719 91.648438 14.5 91.304688 C 13.949219 90.820312 13.21875 90.597656 12.492188 90.691406 L 2.230469 92.007812 C 0.910156 92.175781 -0.0585938 93.328125 0.00390625 94.65625 L 1.082031 118.152344 C 1.148438 119.515625 2.265625 120.585938 3.628906 120.589844 L 12.625 120.601562 C 12.628906 120.601562 12.628906 120.601562 12.628906 120.601562 C 12.632812 120.601562 12.636719 120.601562 12.644531 120.601562 C 14.054688 120.601562 15.195312 119.457031 15.195312 118.046875 C 15.195312 117.824219 15.167969 117.605469 15.113281 117.394531 C 15.039062 116.796875 15.050781 115.6875 15.503906 115.144531 C 16.0625 114.476562 17.835938 114.464844 20.203125 115.160156 C 22.652344 115.878906 24.917969 116.375 26.984375 116.648438 C 20.710938 123.164062 12.175781 136.261719 14.644531 157.941406 C 14.789062 159.222656 15.867188 160.191406 17.15625 160.207031 C 18.722656 160.222656 22.804688 160.230469 29.285156 160.230469 C 40.4375 160.230469 54.8125 160.207031 54.8125 160.207031 C 55.625 160.207031 56.386719 159.816406 56.867188 159.160156 C 57.347656 158.503906 57.484375 157.65625 57.238281 156.882812 C 57.125 156.523438 46.117188 120.761719 66.671875 101.074219 C 67.171875 100.597656 67.457031 99.933594 67.460938 99.242188 C 67.460938 98.550781 67.183594 97.886719 66.691406 97.40625 C 65.925781 96.660156 63.339844 93.429688 61.886719 91.566406 Z M 49.058594 136.386719 C 49.210938 144.421875 50.542969 151.261719 51.472656 155.109375 C 46.566406 155.113281 37.128906 155.128906 29.285156 155.128906 C 24.914062 155.128906 21.640625 155.125 19.5 155.117188 C 17.742188 132.679688 29.023438 121.148438 33.726562 117.359375 C 34.808594 116.488281 35.097656 114.957031 34.375 113.761719 L 34.371094 113.75 L 34.082031 113.21875 C 33.570312 112.261719 32.550781 111.703125 31.464844 111.769531 C 31.191406 111.785156 30.875 111.796875 30.519531 111.796875 C 28.851562 111.796875 25.957031 111.53125 21.640625 110.265625 C 19.996094 109.78125 18.492188 109.535156 17.179688 109.535156 C 14.136719 109.535156 12.4375 110.832031 11.550781 111.917969 C 10.628906 113.039062 10.222656 114.339844 10.0625 115.492188 L 6.070312 115.488281 L 5.210938 96.769531 L 10.261719 96.125 L 10.261719 96.554688 C 10.261719 97.195312 10.457031 97.835938 10.878906 98.320312 C 11.707031 99.273438 13.039062 99.460938 14.070312 98.878906 C 18.765625 96.230469 23.71875 94.882812 28.792969 94.882812 C 39.335938 94.882812 47.074219 100.710938 47.144531 100.765625 C 47.921875 101.367188 48.972656 101.46875 49.851562 101.027344 L 59.160156 96.351562 C 59.835938 97.203125 60.664062 98.234375 61.417969 99.140625 C 53.039062 108.191406 48.773438 121.007812 49.058594 136.386719 Z M 49.058594 136.386719 "/>
<path style=" stroke:none;fill-rule:nonzero;fill:rgb(0%,0%,0%);fill-opacity:1;" d="M 255.230469 97.40625 C 254.464844 96.660156 251.878906 93.429688 250.429688 91.566406 C 249.683594 90.605469 248.359375 90.308594 247.269531 90.855469 L 237.453125 95.785156 C 234.503906 93.882812 227.023438 89.777344 217.335938 89.777344 C 212.710938 89.777344 208.179688 90.722656 203.828125 92.585938 C 203.703125 92.09375 203.429688 91.648438 203.042969 91.304688 C 202.492188 90.820312 201.761719 90.597656 201.03125 90.691406 L 190.773438 92.007812 C 189.453125 92.175781 188.484375 93.328125 188.546875 94.65625 L 189.625 118.152344 C 189.6875 119.515625 190.808594 120.585938 192.171875 120.589844 L 201.167969 120.601562 C 201.171875 120.601562 201.171875 120.601562 201.171875 120.601562 C 201.175781 120.601562 201.179688 120.601562 201.1875 120.601562 C 202.597656 120.601562 203.738281 119.457031 203.738281 118.046875 C 203.738281 117.824219 203.707031 117.605469 203.652344 117.394531 C 203.582031 116.796875 203.59375 115.6875 204.046875 115.144531 C 204.605469 114.476562 206.378906 114.464844 208.746094 115.160156 C 211.195312 115.878906 213.460938 116.375 215.527344 116.648438 C 209.253906 123.164062 200.71875 136.261719 203.1875 157.945312 C 203.332031 159.222656 204.410156 160.195312 205.695312 160.207031 C 207.265625 160.222656 211.347656 160.230469 217.828125 160.230469 C 228.980469 160.230469 243.355469 160.207031 243.355469 160.207031 C 244.167969 160.207031 244.929688 159.816406 245.410156 159.160156 C 245.890625 158.503906 246.027344 157.65625 245.78125 156.882812 C 245.667969 156.523438 234.621094 120.800781 255.214844 101.074219 C 255.714844 100.597656 256 99.933594 256 99.242188 C 256.003906 98.550781 255.726562 97.890625 255.230469 97.40625 Z M 237.601562 136.386719 C 237.753906 144.421875 239.085938 151.261719 240.015625 155.109375 C 235.109375 155.113281 225.671875 155.128906 217.828125 155.128906 C 213.457031 155.128906 210.183594 155.125 208.042969 155.117188 C 206.285156 132.679688 217.566406 121.148438 222.269531 117.359375 C 223.351562 116.488281 223.636719 114.957031 222.917969 113.761719 L 222.910156 113.75 L 222.625 113.21875 C 222.109375 112.261719 221.089844 111.703125 220.007812 111.769531 C 219.730469 111.785156 219.414062 111.796875 219.058594 111.796875 C 217.390625 111.796875 214.5 111.53125 210.183594 110.265625 C 208.535156 109.78125 207.035156 109.535156 205.71875 109.535156 C 202.679688 109.535156 200.980469 110.832031 200.089844 111.917969 C 199.171875 113.039062 198.765625 114.339844 198.605469 115.492188 L 194.613281 115.488281 L 193.753906 96.769531 L 198.804688 96.125 L 198.804688 96.558594 C 198.804688 97.199219 199 97.839844 199.421875 98.320312 C 200.253906 99.273438 201.582031 99.457031 202.609375 98.878906 C 207.304688 96.230469 212.261719 94.882812 217.335938 94.882812 C 227.878906 94.882812 235.613281 100.710938 235.6875 100.765625 C 236.464844 101.367188 237.515625 101.46875 238.394531 101.027344 L 247.699219 96.351562 C 248.378906 97.203125 249.207031 98.234375 249.960938 99.140625 C 241.582031 108.191406 237.316406 121.007812 237.601562 136.386719 Z M 237.601562 136.386719 "/>
</g>
</svg>
