<?xml version="1.0" encoding="UTF-8"?>
<svg xmlns="http://www.w3.org/2000/svg" xmlns:xlink="http://www.w3.org/1999/xlink" width="256pt" height="256pt" viewBox="0 0 256 256" version="1.1">
<g id="surface1">
<path style=" stroke:none;fill-rule:nonzero;fill:rgb(80%,80%,80%);fill-opacity:1;" d="M 127.914062 16.011719 C 189.765625 16.058594 239.871094 66.234375 239.820312 128.085938 C 239.773438 189.933594 189.597656 240.039062 127.746094 239.988281 C 65.929688 239.941406 15.84375 189.816406 15.84375 128 C 15.933594 66.15625 66.070312 16.058594 127.914062 16.011719 M 127.914062 0 C 57.222656 0.046875 -0.046875 57.390625 0 128.085938 C 0.046875 198.777344 57.390625 256.046875 128.085938 256 C 198.742188 255.953125 256 198.660156 256 128 C 255.976562 57.285156 198.628906 -0.0234375 127.914062 0 Z M 127.914062 0 "/>
<path style=" stroke:none;fill-rule:nonzero;fill:rgb(88.627451%,10.588235%,10.588235%);fill-opacity:1;" d="M 67.5 87.386719 L 87.308594 67.578125 L 188.375 168.644531 L 168.566406 188.453125 Z M 67.5 87.386719 "/>
<path style=" stroke:none;fill-rule:nonzero;fill:rgb(88.627451%,10.588235%,10.588235%);fill-opacity:1;" d="M 67.496094 168.617188 L 168.5625 67.550781 L 188.371094 87.359375 L 87.304688 188.425781 Z M 67.496094 168.617188 "/>
</g>
</svg>
